<!--?xml version="1.0" encoding="utf-8"?-->
<!-- Generator: Adobe Illustrator 18.1.1, SVG Export Plug-In . SVG Version: 6.00 Build 0)  -->

<svg version="1.1" id="_x32_" xmlns="http://www.w3.org/2000/svg" xmlns:xlink="http://www.w3.org/1999/xlink" x="0px" y="0px" viewBox="0 0 512 512" style="width: 256px; height: 256px; opacity: 1;" xml:space="preserve">
<style type="text/css">
	.st0{fill:#4B4B4B;}
</style>
<g>
	<path class="st0" d="M454.535,277.154c-35.431-35.465-84.645-57.483-138.744-57.465H95.8l116.068-103.851
		c10.897-9.75,11.827-26.491,2.073-37.388c-9.754-10.905-26.49-11.827-37.391-2.078L8.828,226.43
		c-0.177,0.156-0.298,0.362-0.47,0.517c-0.789,0.742-1.483,1.569-2.177,2.414c-0.453,0.535-0.939,1.044-1.341,1.621
		c-0.65,0.914-1.168,1.922-1.697,2.923c-0.302,0.577-0.664,1.111-0.923,1.698c-0.526,1.208-0.888,2.483-1.233,3.776
		c-0.117,0.449-0.31,0.862-0.406,1.319C0.207,242.465,0,244.292,0,246.171c0,1.88,0.207,3.707,0.582,5.465
		c0.096,0.475,0.302,0.914,0.423,1.38c0.344,1.267,0.698,2.534,1.215,3.716c0.263,0.603,0.63,1.147,0.939,1.733
		c0.526,0.991,1.039,1.983,1.681,2.896c0.397,0.569,0.88,1.069,1.323,1.603c0.703,0.845,1.41,1.69,2.212,2.44
		c0.168,0.155,0.285,0.354,0.453,0.5L176.549,415.97c10.901,9.749,27.638,8.819,37.391-2.078
		c9.754-10.896,8.824-27.638-2.073-37.388v-0.008L95.8,272.654h219.992c39.642,0.018,75.28,15.991,101.288,41.948
		c25.956,26.007,41.938,61.654,41.956,101.291c0,14.62,11.853,26.482,26.482,26.482c14.62,0,26.482-11.862,26.482-26.482
		C512.009,361.79,490,312.584,454.535,277.154z" style="fill: #d3d3d3;"></path>
</g>
</svg>
