<?xml version="1.0" encoding="utf-8"?>
<!-- Generator: Adobe Illustrator 28.0.0, SVG Export Plug-In . SVG Version: 6.00 Build 0)  -->
<svg version="1.1" id="_x32_" xmlns="http://www.w3.org/2000/svg" xmlns:xlink="http://www.w3.org/1999/xlink" x="0px" y="0px"
	 viewBox="0 0 512 512" style="enable-background:new 0 0 512 512;" xml:space="preserve">
<style type="text/css">
	.st0{fill:#B4B4B4;}
</style>
<g>
	<path class="st0" d="M359.8,224H152.2c-5.9,0-10.7,4.8-10.7,10.7v42.5c0,5.9,4.8,10.7,10.7,10.7h207.5c5.9,0,10.7-4.8,10.7-10.7
		v-42.5C370.5,228.8,365.7,224,359.8,224z"/>
	<path class="st0" d="M256,0C114.6,0,0,114.6,0,256c0,141.4,114.6,256,256,256c141.4,0,256-114.6,256-256C512,114.6,397.4,0,256,0z
		 M256,448c-105.9,0-192-86.1-192-192c0-105.9,86.1-192,192-192c105.9,0,192,86.1,192,192C448,361.9,361.9,448,256,448z"/>
</g>
</svg>
