<?xml version="1.0" encoding="utf-8"?>
<!-- Generator: Adobe Illustrator 28.0.0, SVG Export Plug-In . SVG Version: 6.00 Build 0)  -->
<svg version="1.1" id="_x32_" xmlns="http://www.w3.org/2000/svg" xmlns:xlink="http://www.w3.org/1999/xlink" x="0px" y="0px"
	 viewBox="0 0 512 512" style="enable-background:new 0 0 512 512;" xml:space="preserve">
<style type="text/css">
	.st0{fill:#D3D3D3;}
	.st1{fill:none;}
</style>
<g>
	<path class="st0" d="M451.7,161.2L451.7,161.2L297,16.2C285.5,5.4,270.6,0,256,0c-14.7,0-29.5,5.4-41,16.2l-154.7,145
		c-12.1,11.3-18.9,27.1-18.9,43.7v247.2c0,16.5,6.7,31.6,17.5,42.4S84.8,512,101.3,512h309.4c16.5,0,31.6-6.7,42.4-17.5
		s17.6-25.9,17.5-42.4V204.9C470.6,188.4,463.7,172.6,451.7,161.2z M422.9,452.1c0,3.4-1.3,6.3-3.6,8.6c-2.3,2.3-5.2,3.6-8.6,3.6
		H309v-106H203v106H101.3c-3.4,0-6.3-1.3-8.6-3.6c-2.3-2.3-3.6-5.2-3.6-8.6V204.9c0-3.4,1.4-6.6,3.8-8.9L247.7,51
		c2.4-2.2,5.3-3.3,8.3-3.3c3.1,0,5.9,1.1,8.3,3.3L419,196l0,0c2.5,2.3,3.9,5.5,3.9,8.9V452.1L422.9,452.1z"/>
</g>
<rect x="89.1" y="204.9" class="st1" width="333.8" height="120.1"/>
</svg>
