<?xml version="1.0" encoding="UTF-8"?><svg id="_レイヤー_1" xmlns="http://www.w3.org/2000/svg" xmlns:xlink="http://www.w3.org/1999/xlink" viewBox="0 0 300 300"><defs><style>.cls-1,.cls-2{fill:#fff;}.cls-3{letter-spacing:.24em;}.cls-4{letter-spacing:.5em;}.cls-5{fill:url(#_名称未設定グラデーション_73);}.cls-2{font-family:STYuanti-TC-Regular, 'Yuanti TC';font-size:21px;}</style><radialGradient id="_名称未設定グラデーション_73" cx="155.7" cy="109.76" fx="155.7" fy="109.76" r="150" gradientUnits="userSpaceOnUse"><stop offset=".19" stop-color="#49424c"/><stop offset=".63" stop-color="#15202b"/></radialGradient></defs><rect class="cls-5" width="300" height="300"/><text class="cls-2" transform="translate(17.75 216.84)"><tspan x="0" y="0">N</tspan><tspan class="cls-4" x="13.99" y="0">S</tspan><tspan class="cls-3" x="34.86" y="0">高図書管理システ</tspan><tspan x="243.34" y="0">ム</tspan></text><g><path class="cls-1" d="M226.12,105.32c-.57-2.7-2.46-4.92-5.03-5.92l-9.01-3.5v9.26l1.71,.66c.77,.3,1.34,.97,1.51,1.78,.17,.81-.08,1.65-.66,2.24l-57.81,57.81c-1.14,1.14-2.85,1.5-4.36,.92l-12.85-5v9.26l9.02,3.51c5.13,1.99,10.94,.77,14.83-3.12l60.45-60.45c1.95-1.95,2.78-4.75,2.21-7.45Z"/><path class="cls-1" d="M82.76,129.77c.4-5.64,2.21-13.02,8.49-12.67l57.35,22.3c5.14,2,10.97,.76,14.86-3.15l55.43-55.79c1.94-1.95,2.77-4.75,2.2-7.44-.57-2.69-2.46-4.92-5.02-5.91l-57-22.17c-5.14-2-10.98-.76-14.86,3.15L79.99,112.72c-5.08,4.18-6.46,11.97-6.46,18.89s.46,15.23,8.31,18.46l-1.85-.43,17.29,6.72v-6.19c0-1.01,.13-1.99,.33-2.95l-11.62-4.52c-3.7-1.4-3.7-6.43-3.23-12.94Z"/><path class="cls-1" d="M106.67,145.58c-1.22,1.23-1.9,2.88-1.9,4.6v28.67l12.18-2.61,15.18,13.24v-28.66c0-1.73,.69-3.38,1.91-4.6l4.85-4.86-27.36-10.64-4.86,4.86Z"/></g></svg>