<!--?xml version="1.0" encoding="utf-8"?-->
<!-- Generator: Adobe Illustrator 18.1.1, SVG Export Plug-In . SVG Version: 6.00 Build 0)  -->

<svg version="1.1" id="_x32_" xmlns="http://www.w3.org/2000/svg" xmlns:xlink="http://www.w3.org/1999/xlink" x="0px" y="0px" viewBox="0 0 512 512" style="width: 256px; height: 256px; opacity: 1;" xml:space="preserve">
<style type="text/css">
	.st0{fill:#d3d3d3;}
</style>
<g>
	<rect x="64.45" y="125.228" class="st0" width="135.068" height="33.167" style="fill: #d3d3d3;"></rect>
	<path class="st0" d="M424.831,46.638c8.375,8.359,13.488,19.773,13.488,32.56c0,12.746-5.112,24.16-13.488,32.526
		c-8.358,8.358-19.772,13.47-32.551,13.504h-52.79v33.167h52.79c21.837,0,41.726-8.908,56.012-23.21
		c14.302-14.286,23.177-34.184,23.177-55.987c0-21.846-8.875-41.743-23.177-56.029C434.006,8.883,414.117-0.033,392.28,0H64.45
		v33.151h327.83C405.059,33.151,416.473,38.272,424.831,46.638z" style="fill: #d3d3d3;"></path>
	<rect x="339.49" y="176.811" class="st0" width="84.717" height="33.143" style="fill: #d3d3d3;"></rect>
	<path class="st0" d="M424.207,335.207v-33.168H96.386c-12.788-0.042-24.16-5.153-32.568-13.469
		C55.458,280.16,50.338,268.747,50.338,256c0-12.788,5.12-24.201,13.479-32.56c8.408-8.366,19.781-13.486,32.568-13.486h103.132
		v-33.143H96.386c-21.812-0.033-41.743,8.875-55.996,23.161C26.07,214.258,17.187,234.155,17.187,256
		c0,21.812,8.883,41.701,23.202,55.987c14.253,14.303,34.184,23.22,55.996,23.22H424.207z" style="fill: #d3d3d3;"></path>
	<path class="st0" d="M471.61,376.8c-14.269-14.304-34.182-23.203-55.995-23.186H87.794v33.142h327.821
		c12.771,0,24.176,5.129,32.56,13.488c8.366,8.391,13.479,19.78,13.487,32.551c-0.008,12.771-5.12,24.177-13.487,32.552
		c-8.383,8.359-19.789,13.487-32.56,13.487H87.794V512h327.821c21.812,0.008,41.726-8.908,55.995-23.21
		c14.32-14.269,23.22-34.175,23.203-55.996C494.83,410.982,485.93,391.068,471.61,376.8z" style="fill: #d3d3d3;"></path>
	<polygon class="st0" points="269.508,200.738 317.394,227.745 317.394,80.422 221.621,80.422 221.621,227.745 	" style="fill: #d3d3d3;"></polygon>
</g>
</svg>
