<?xml version="1.0" standalone="no"?>
<!DOCTYPE svg PUBLIC "-//W3C//DTD SVG 20010904//EN"
 "http://www.w3.org/TR/2001/REC-SVG-20010904/DTD/svg10.dtd">
<svg version="1.0" xmlns="http://www.w3.org/2000/svg"
 width="350.000000pt" height="350.000000pt" viewBox="0 0 350.000000 350.000000"
 preserveAspectRatio="xMidYMid meet">
<metadata>
Created by potrace 1.15, written by Peter Selinger 2001-2017
</metadata><g><rect x="0" y="0" width="350" height="350" fill="#edffe7" fill-opacity="0" stroke-opacity="0" />
<g transform="translate(0.000000,350.000000) scale(0.050000,-0.050000)"
fill="#020304" stroke="none">
<path d="M600 5700 l0 -700 700 0 700 0 0 700 0 700 -700 0 -700 0 0 -700z
m1200 0 l0 -500 -500 0 -500 0 0 500 0 500 500 0 500 0 0 -500z"/>
<path d="M1000 5700 l0 -300 300 0 300 0 0 300 0 300 -300 0 -300 0 0 -300z"/>
<path d="M2600 6200 l0 -200 100 0 100 0 0 200 0 200 -100 0 -100 0 0 -200z"/>
<path d="M3000 6300 l0 -100 100 0 100 0 0 -100 0 -100 -100 0 -100 0 0 -200
0 -200 100 0 100 0 0 100 0 100 100 0 100 0 0 -100 0 -100 200 0 200 0 0 -100
0 -100 100 0 100 0 0 -100 0 -100 -100 0 -100 0 0 -100 0 -100 100 0 100 0 0
-100 0 -100 100 0 100 0 0 -200 0 -200 -100 0 -100 0 0 -100 0 -100 -100 0
-100 0 0 -200 0 -200 -100 0 -100 0 0 -100 0 -100 -100 0 -100 0 0 400 0 400
-100 0 -100 0 0 100 0 100 -100 0 -100 0 0 200 0 200 100 0 100 0 0 -100 0
-100 200 0 200 0 0 -200 0 -200 100 0 100 0 0 200 0 200 -100 0 -100 0 0 300
0 300 -100 0 -100 0 0 -200 0 -200 -100 0 -100 0 0 200 0 200 -200 0 -200 0 0
-100 0 -100 -100 0 -100 0 0 200 0 200 100 0 100 0 0 100 0 100 -300 0 -300 0
0 -100 0 -100 100 0 100 0 0 -100 0 -100 -100 0 -100 0 0 -200 0 -200 100 0
100 0 0 -100 0 -100 -300 0 -300 0 0 -100 0 -100 -100 0 -100 0 0 100 0 100
-500 0 -500 0 0 -700 0 -700 200 0 200 0 0 -200 0 -200 -100 0 -100 0 0 100 0
100 -100 0 -100 0 0 -500 0 -500 100 0 100 0 0 300 0 300 100 0 100 0 0 -100
0 -100 100 0 100 0 0 -200 0 -200 100 0 100 0 0 300 0 300 100 0 100 0 0 100
0 100 200 0 200 0 0 -100 0 -100 -100 0 -100 0 0 -100 0 -100 -100 0 -100 0 0
-200 0 -200 300 0 300 0 0 -200 0 -200 100 0 100 0 0 -100 0 -100 -100 0 -100
0 0 -500 0 -500 300 0 300 0 0 100 0 100 200 0 200 0 0 -100 0 -100 100 0 100
0 0 300 0 300 -100 0 -100 0 0 200 0 200 100 0 100 0 0 100 0 100 100 0 100 0
0 100 0 100 200 0 200 0 0 100 0 100 100 0 100 0 0 100 0 100 100 0 100 0 0
-200 0 -200 -100 0 -100 0 0 -100 0 -100 -100 0 -100 0 0 -100 0 -100 100 0
100 0 0 -100 0 -100 200 0 200 0 0 -100 0 -100 100 0 100 0 0 -200 0 -200
-100 0 -100 0 0 -100 0 -100 300 0 300 0 0 100 0 100 100 0 100 0 0 -100 0
-100 200 0 200 0 0 100 0 100 200 0 200 0 0 200 0 200 100 0 100 0 0 400 0
400 -100 0 -100 0 0 200 0 200 100 0 100 0 0 200 0 200 -100 0 -100 0 0 200 0
200 -100 0 -100 0 0 100 0 100 200 0 200 0 0 100 0 100 -100 0 -100 0 0 200 0
200 -100 0 -100 0 0 300 0 300 100 0 100 0 0 100 0 100 -100 0 -100 0 0 -100
0 -100 -100 0 -100 0 0 100 0 100 -100 0 -100 0 0 -100 0 -100 100 0 100 0 0
-100 0 -100 -200 0 -200 0 0 -100 0 -100 -200 0 -200 0 0 300 0 300 -100 0
-100 0 0 -400 0 -400 -100 0 -100 0 0 200 0 200 -100 0 -100 0 0 200 0 200
100 0 100 0 0 100 0 100 100 0 100 0 0 400 0 400 -100 0 -100 0 0 200 0 200
-100 0 -100 0 0 100 0 100 -100 0 -100 0 0 -200 0 -200 100 0 100 0 0 -100 0
-100 100 0 100 0 0 -400 0 -400 -100 0 -100 0 0 200 0 200 -100 0 -100 0 0
100 0 100 -100 0 -100 0 0 100 0 100 -100 0 -100 0 0 100 0 100 100 0 100 0 0
100 0 100 -100 0 -100 0 0 100 0 100 -100 0 -100 0 0 -100 0 -100 100 0 100 0
0 -100 0 -100 -100 0 -100 0 0 -100 0 -100 -100 0 -100 0 0 200 0 200 -100 0
-100 0 0 100 0 100 -100 0 -100 0 0 -100z m-400 -1200 l0 -100 -100 0 -100 0
0 100 0 100 100 0 100 0 0 -100z m400 0 l0 -100 -100 0 -100 0 0 100 0 100
100 0 100 0 0 -100z m1200 0 l0 -100 100 0 100 0 0 -100 0 -100 -100 0 -100 0
0 100 0 100 -100 0 -100 0 0 100 0 100 100 0 100 0 0 -100z m-1400 -400 l0
-100 100 0 100 0 0 -100 0 -100 100 0 100 0 0 -100 0 -100 -100 0 -100 0 0
-200 0 -200 100 0 100 0 0 -100 0 -100 100 0 100 0 0 -100 0 -100 -100 0 -100
0 0 -100 0 -100 500 0 500 0 0 -200 0 -200 -200 0 -200 0 0 -100 0 -100 -100
0 -100 0 0 -100 0 -100 100 0 100 0 0 -100 0 -100 -200 0 -200 0 0 300 0 300
-100 0 -100 0 0 200 0 200 -100 0 -100 0 0 100 0 100 100 0 100 0 0 100 0 100
-300 0 -300 0 0 -200 0 -200 100 0 100 0 0 -100 0 -100 100 0 100 0 0 -200 0
-200 -200 0 -200 0 0 -100 0 -100 200 0 200 0 0 -100 0 -100 -100 0 -100 0 0
-300 0 -300 100 0 100 0 0 -200 0 -200 100 0 100 0 0 -100 0 -100 -100 0 -100
0 0 100 0 100 -300 0 -300 0 0 200 0 200 100 0 100 0 0 200 0 200 -100 0 -100
0 0 100 0 100 100 0 100 0 0 100 0 100 -100 0 -100 0 0 100 0 100 100 0 100 0
0 100 0 100 -200 0 -200 0 0 100 0 100 -100 0 -100 0 0 100 0 100 -100 0 -100
0 0 100 0 100 200 0 200 0 0 -100 0 -100 100 0 100 0 0 200 0 200 -300 0 -300
0 0 100 0 100 -100 0 -100 0 0 -200 0 -200 -200 0 -200 0 0 400 0 400 100 0
100 0 0 100 0 100 100 0 100 0 0 -100 0 -100 200 0 200 0 0 -100 0 -100 -100
0 -100 0 0 -100 0 -100 300 0 300 0 0 -100 0 -100 100 0 100 0 0 100 0 100
100 0 100 0 0 100 0 100 -300 0 -300 0 0 200 0 200 -200 0 -200 0 0 100 0 100
400 0 400 0 0 100 0 100 100 0 100 0 0 -100z m-1800 -200 l0 -100 -100 0 -100
0 0 100 0 100 100 0 100 0 0 -100z m0 -500 l0 -200 -100 0 -100 0 0 200 0 200
100 0 100 0 0 -200z m3400 100 l0 -100 100 0 100 0 0 -300 0 -300 200 0 200 0
0 100 0 100 -100 0 -100 0 0 100 0 100 100 0 100 0 0 -100 0 -100 100 0 100 0
0 -100 0 -100 -100 0 -100 0 0 -100 0 -100 -200 0 -200 0 0 -400 0 -400 -100
0 -100 0 0 700 0 700 -100 0 -100 0 0 100 0 100 -100 0 -100 0 0 100 0 100
200 0 200 0 0 -100z m1400 0 l0 -100 100 0 100 0 0 -200 0 -200 -200 0 -200 0
0 100 0 100 -100 0 -100 0 0 100 0 100 100 0 100 0 0 100 0 100 100 0 100 0 0
-100z m-1800 -400 l0 -100 100 0 100 0 0 -100 0 -100 -100 0 -100 0 0 100 0
100 -100 0 -100 0 0 -100 0 -100 -100 0 -100 0 0 100 0 100 100 0 100 0 0 100
0 100 100 0 100 0 0 -100z m1800 -400 l0 -100 100 0 100 0 0 -100 0 -100 -100
0 -100 0 0 -100 0 -100 -100 0 -100 0 0 -100 0 -100 100 0 100 0 0 -100 0
-100 100 0 100 0 0 100 0 100 100 0 100 0 0 -100 0 -100 -100 0 -100 0 0 -200
0 -200 -100 0 -100 0 0 -100 0 -100 -100 0 -100 0 0 400 0 400 -100 0 -100 0
0 100 0 100 -100 0 -100 0 0 -100 0 -100 -100 0 -100 0 0 200 0 200 300 0 300
0 0 200 0 200 100 0 100 0 0 -100z m-4600 -400 l0 -100 -100 0 -100 0 0 100 0
100 100 0 100 0 0 -100z m800 -400 l0 -100 -100 0 -100 0 0 100 0 100 100 0
100 0 0 -100z m3400 -600 l0 -300 -300 0 -300 0 0 300 0 300 300 0 300 0 0
-300z m-800 -200 l0 -100 -100 0 -100 0 0 100 0 100 100 0 100 0 0 -100z
m1600 -200 l0 -100 -200 0 -200 0 0 -100 0 -100 100 0 100 0 0 -100 0 -100
-100 0 -100 0 0 -100 0 -100 -100 0 -100 0 0 100 0 100 -200 0 -200 0 0 100 0
100 200 0 200 0 0 200 0 200 300 0 300 0 0 -100z m-1200 -200 l0 -100 -100 0
-100 0 0 100 0 100 100 0 100 0 0 -100z"/>
<path d="M2600 4400 l0 -200 100 0 100 0 0 200 0 200 -100 0 -100 0 0 -200z"/>
<path d="M1400 4000 l0 -200 100 0 100 0 0 200 0 200 -100 0 -100 0 0 -200z"/>
<path d="M2400 3100 l0 -100 100 0 100 0 0 100 0 100 -100 0 -100 0 0 -100z"/>
<path d="M3600 2900 l0 -100 100 0 100 0 0 100 0 100 -100 0 -100 0 0 -100z"/>
<path d="M5000 1900 l0 -100 100 0 100 0 0 100 0 100 -100 0 -100 0 0 -100z"/>
<path d="M5600 1100 l0 -100 100 0 100 0 0 100 0 100 -100 0 -100 0 0 -100z"/>
<path d="M5000 5700 l0 -700 700 0 700 0 0 700 0 700 -700 0 -700 0 0 -700z
m1200 0 l0 -500 -500 0 -500 0 0 500 0 500 500 0 500 0 0 -500z"/>
<path d="M5400 5700 l0 -300 300 0 300 0 0 300 0 300 -300 0 -300 0 0 -300z"/>
<path d="M2200 6100 l0 -100 100 0 100 0 0 100 0 100 -100 0 -100 0 0 -100z"/>
<path d="M5200 4700 l0 -100 100 0 100 0 0 100 0 100 -100 0 -100 0 0 -100z"/>
<path d="M600 1300 l0 -700 700 0 700 0 0 700 0 700 -700 0 -700 0 0 -700z
m1200 0 l0 -500 -500 0 -500 0 0 500 0 500 500 0 500 0 0 -500z"/>
<path d="M1000 1300 l0 -300 300 0 300 0 0 300 0 300 -300 0 -300 0 0 -300z"/>
<path d="M3600 1400 l0 -200 100 0 100 0 0 -200 0 -200 -100 0 -100 0 0 -100
0 -100 100 0 100 0 0 100 0 100 200 0 200 0 0 100 0 100 100 0 100 0 0 100 0
100 -300 0 -300 0 0 200 0 200 -100 0 -100 0 0 -200z"/>
</g>
</g></svg>
