<!--?xml version="1.0" encoding="utf-8"?-->
<!-- Generator: Adobe Illustrator 18.1.1, SVG Export Plug-In . SVG Version: 6.00 Build 0)  -->

<svg version="1.1" id="_x32_" xmlns="http://www.w3.org/2000/svg" xmlns:xlink="http://www.w3.org/1999/xlink" x="0px" y="0px" viewBox="0 0 512 512" style="width: 256px; height: 256px; opacity: 1;" xml:space="preserve">
<style type="text/css">
	.st0{fill:#4B4B4B;}
</style>
<g>
	<rect x="36.823" y="215.559" class="st0" width="73.646" height="18.412" style="fill: #d3d3d3;"></rect>
	<rect x="36.823" y="141.912" class="st0" width="73.646" height="36.823" style="fill: #d3d3d3;"></rect>
	<rect x="165.704" y="215.559" class="st0" width="73.646" height="18.412" style="fill: #d3d3d3;"></rect>
	<rect x="165.704" y="141.912" class="st0" width="73.646" height="36.823" style="fill: #d3d3d3;"></rect>
	<path class="st0" d="M510.067,401.059L403.032,66.108c-5.512-17.206-21.41-28.193-38.577-28.193c-4.081,0-8.244,0.63-12.325,1.933
		l-0.023,0.008l-63.114,20.156c-5.853,1.879-10.91,5.026-15.135,8.945c-5.434-15.976-20.389-27.536-38.203-27.546h-66.256
		c-12.694,0.009-23.882,5.96-31.312,15.094c-7.43-9.134-18.619-15.085-31.312-15.094H40.518C18.137,41.422,0.005,59.545,0,81.931
		v351.635c0.005,22.386,18.137,40.509,40.518,40.518h66.256c12.694-0.009,23.882-5.961,31.312-15.094
		c7.43,9.134,18.619,15.085,31.312,15.094h66.256c22.381-0.009,40.514-18.132,40.518-40.518V153.015l93.591,292.887
		c5.52,17.206,21.419,28.192,38.59,28.183c4.09,0,8.262-0.63,12.334-1.924l63.119-20.174c17.207-5.51,28.202-21.405,28.193-38.576
		C512,409.312,511.38,405.14,510.067,401.059z M128.881,433.566c-0.022,12.209-9.903,22.08-22.107,22.107H40.518
		c-12.204-0.026-22.085-9.898-22.107-22.107V81.931c0.022-12.208,9.903-22.089,22.107-22.107h66.256
		c12.204,0.018,22.084,9.898,22.107,22.107V433.566z M257.762,433.566c-0.022,12.209-9.903,22.08-22.107,22.107h-66.256
		c-12.204-0.026-22.084-9.898-22.106-22.107V81.931c0.022-12.208,9.902-22.089,22.106-22.107h66.256
		c12.204,0.018,22.085,9.898,22.107,22.107V433.566z M478.197,434.457l-63.11,20.164c-2.256,0.72-4.513,1.052-6.733,1.052
		c-9.34-0.009-18.061-5.987-21.055-15.382L280.268,105.341c-0.724-2.256-1.056-4.513-1.056-6.733
		c0.005-9.341,5.988-18.061,15.386-21.054l63.11-20.166h0.009c2.252-0.719,4.509-1.06,6.738-1.06
		c9.337,0.009,18.052,5.988,21.046,15.391l107.035,334.95c0.72,2.257,1.052,4.513,1.052,6.743
		C493.579,422.742,487.601,431.463,478.197,434.457z" style="fill: #d3d3d3;"></path>
	<path class="st0" d="M352.099,39.857c0.013,0,0.022,0,0.031-0.008l1.061-0.342L352.099,39.857z" style="fill: #d3d3d3;"></path>
	<polygon class="st0" points="338.484,227.03 344.085,244.561 414.242,222.148 408.633,204.608 	" style="fill: #d3d3d3;"></polygon>
	<polygon class="st0" points="386.211,134.459 316.062,156.872 327.273,191.951 397.422,169.53 	" style="fill: #d3d3d3;"></polygon>
</g>
</svg>
