<?xml version="1.0" encoding="utf-8"?>
<!-- Generator: Adobe Illustrator 27.0.0, SVG Export Plug-In . SVG Version: 6.00 Build 0)  -->
<svg version="1.1" id="_x32_" xmlns="http://www.w3.org/2000/svg" xmlns:xlink="http://www.w3.org/1999/xlink" x="0px" y="0px"
	 viewBox="0 0 512 512" style="enable-background:new 0 0 512 512;" xml:space="preserve">
<style type="text/css">
	.st0{opacity:0.9;fill:#4DBA7B;enable-background:new    ;}
	.st1{fill:none;}
	.st2{font-family:'TsukuARdGothic-Bold-83pv-RKSJ-H';}
	.st3{font-size:180px;}
	.st4{letter-spacing:36;}
</style>
<path class="st0" d="M437,75C390.8,28.7,326.6,0,256,0S121.2,28.7,75,75C28.7,121.2,0,185.4,0,256s28.7,134.8,75,181
	c46.3,46.3,110.4,75,181,75s134.8-28.7,181-75c46.3-46.2,75-110.4,75-181S483.3,121.2,437,75z M405.1,405.1
	c-38.2,38.2-90.8,61.7-149.1,61.7s-110.8-23.6-149.1-61.7C68.7,366.8,45.2,314.3,45.2,256s23.6-110.8,61.7-149.1
	c38.2-38.2,90.8-61.7,149.1-61.7s110.8,23.5,149.1,61.7c38.2,38.2,61.7,90.8,61.7,149.1S443.3,366.8,405.1,405.1z"/>
<rect x="68.3" y="161.5" class="st1" width="375.5" height="189"/>
<text transform="matrix(1 0 0 1 126.6189 310.2407)" class="st0 st2 st3 st4">OK</text>
</svg>
